<svg width="16" height="16" viewBox="0 0 16 16" fill="none" xmlns="http://www.w3.org/2000/svg">
<path d="M13 2.125H11.375V1.5C11.375 1.40054 11.3355 1.30516 11.2652 1.23483C11.1948 1.16451 11.0995 1.125 11 1.125C10.9005 1.125 10.8052 1.16451 10.7348 1.23483C10.6645 1.30516 10.625 1.40054 10.625 1.5V2.125H5.375V1.5C5.375 1.40054 5.33549 1.30516 5.26516 1.23483C5.19484 1.16451 5.09946 1.125 5 1.125C4.90054 1.125 4.80516 1.16451 4.73484 1.23483C4.66451 1.30516 4.625 1.40054 4.625 1.5V2.125H3C2.76794 2.125 2.54538 2.21719 2.38128 2.38128C2.21719 2.54538 2.125 2.76794 2.125 3V13C2.125 13.2321 2.21719 13.4546 2.38128 13.6187C2.54538 13.7828 2.76794 13.875 3 13.875H13C13.2321 13.875 13.4546 13.7828 13.6187 13.6187C13.7828 13.4546 13.875 13.2321 13.875 13V3C13.875 2.76794 13.7828 2.54538 13.6187 2.38128C13.4546 2.21719 13.2321 2.125 13 2.125ZM3 2.875H4.625V3.5C4.625 3.59946 4.66451 3.69484 4.73484 3.76517C4.80516 3.83549 4.90054 3.875 5 3.875C5.09946 3.875 5.19484 3.83549 5.26516 3.76517C5.33549 3.69484 5.375 3.59946 5.375 3.5V2.875H10.625V3.5C10.625 3.59946 10.6645 3.69484 10.7348 3.76517C10.8052 3.83549 10.9005 3.875 11 3.875C11.0995 3.875 11.1948 3.83549 11.2652 3.76517C11.3355 3.69484 11.375 3.59946 11.375 3.5V2.875H13C13.0332 2.875 13.0649 2.88817 13.0884 2.91161C13.1118 2.93505 13.125 2.96685 13.125 3V5.125H2.875V3C2.875 2.96685 2.88817 2.93505 2.91161 2.91161C2.93505 2.88817 2.96685 2.875 3 2.875ZM13 13.125H3C2.96685 13.125 2.93505 13.1118 2.91161 13.0884C2.88817 13.0649 2.875 13.0332 2.875 13V5.875H13.125V13C13.125 13.0332 13.1118 13.0649 13.0884 13.0884C13.0649 13.1118 13.0332 13.125 13 13.125ZM8.875 9.5C8.875 9.67306 8.82368 9.84223 8.72754 9.98612C8.63139 10.13 8.49473 10.2422 8.33485 10.3084C8.17496 10.3746 7.99903 10.3919 7.8293 10.3582C7.65956 10.3244 7.50365 10.2411 7.38128 10.1187C7.25891 9.99635 7.17557 9.84044 7.14181 9.6707C7.10805 9.50097 7.12538 9.32504 7.19161 9.16515C7.25783 9.00527 7.36998 8.86861 7.51388 8.77246C7.65777 8.67632 7.82694 8.625 8 8.625C8.23206 8.625 8.45462 8.71719 8.61872 8.88128C8.78281 9.04538 8.875 9.26794 8.875 9.5Z" fill="black"/>
</svg>
