<?xml version="1.0" encoding="UTF-8"?>
<svg id="Layer_1" data-name="Layer 1" xmlns="http://www.w3.org/2000/svg" viewBox="0 0 504 216">
  <defs>
    <style>
      .cls-1 {
        fill: #000003;
      }

      .cls-2 {
        fill: #f72;
        fill-rule: evenodd;
      }
    </style>
  </defs>
  <path class="cls-1" d="m415.78,145.96h12.83v-54.37h-12.83v54.37Zm6.52-62.57c1.35-.02,2.56-.37,3.66-1.05,1.09-.67,1.95-1.56,2.59-2.68.65-1.1.98-2.31,1-3.63-.02-1.31-.35-2.52-1-3.61-.65-1.09-1.51-1.96-2.59-2.63-1.1-.67-2.31-1-3.66-1.02-1.38.02-2.63.35-3.73,1.02-1.1.67-1.98,1.54-2.63,2.63-.65,1.09-.98,2.3-1,3.61.02,1.31.35,2.52,1,3.63.65,1.12,1.52,2.02,2.63,2.68,1.1.68,2.35,1.03,3.73,1.05Zm-50.19,62.57h12.09l23.03-54.37h-13.67l-15.46,39.54-15.77-39.54h-13.57l23.35,54.37Zm-44.83,0h12.83v-73.51h-12.83v73.51Zm-40.31-8.1c-2.05,0-3.87-.35-5.47-1.03-1.59-.68-2.84-1.65-3.75-2.91-.91-1.24-1.39-2.75-1.4-4.47.02-1.74.54-3.24,1.58-4.56,1.02-1.3,2.4-2.31,4.14-3.05,1.74-.74,3.7-1.1,5.85-1.12,2.42,0,4.75.17,6.99.54,2.24.35,4.36.88,6.36,1.56v6.1c-.38,1.45-1.03,2.73-1.98,3.84-.95,1.1-2.07,2.05-3.4,2.81-1.31.75-2.75,1.33-4.28,1.72-1.52.39-3.08.58-4.64.58Zm3.47-47.53c-3.42,0-6.92.47-10.52,1.42-3.59.95-7.31,2.37-11.15,4.26l4.42,8.94c2.31-1.19,4.7-2.16,7.17-2.93,2.45-.75,4.98-1.16,7.55-1.17,2.47.02,4.56.37,6.26,1.05,1.72.68,3.08,1.61,4.14,2.79,1.03,1.17,1.79,2.49,2.26,3.96.47,1.49.72,3.01.7,4.61v1.47c-2.49-.95-5.03-1.68-7.62-2.19-2.59-.49-5.13-.75-7.62-.75-3.07.02-5.94.46-8.61,1.31-2.68.88-5.03,2.1-7.06,3.7-2.03,1.61-3.63,3.51-4.77,5.73-1.14,2.21-1.73,4.64-1.75,7.34.02,2.63.53,5.01,1.54,7.15,1.02,2.12,2.44,3.94,4.28,5.47,1.82,1.52,3.96,2.68,6.43,3.51,2.45.81,5.14,1.21,8.05,1.23,2.12,0,4.24-.3,6.36-.89,2.12-.6,4.1-1.47,5.96-2.63,1.86-1.16,3.47-2.58,4.82-4.26v6.52h12.51v-32.71c-.02-4.63-.96-8.64-2.86-12.08-1.87-3.42-4.56-6.08-8.03-7.98-3.49-1.89-7.64-2.84-12.46-2.87Zm-94.15,55.63h13.15v-20.61l9.78-10.52,23.87,31.13h16.19l-31.02-40.38,28.92-31.86h-16.09l-31.65,35.33v-35.33h-13.15v72.25Z"/>
  <path class="cls-2" d="m74.45,108h.04s-.04,0-.04,0h0s.59-.01.59-.01c26.94-.9,48.55-26.25,48.55-57.4h47.38s2.34,53.66-49.87,57.41c52.21,3.75,49.87,57.41,49.87,57.41h-47.38c0-31.14-21.6-56.49-48.55-57.4h-.59Z"/>
</svg>